<?xml version="1.0" standalone="no"?>
<!DOCTYPE svg PUBLIC "-//W3C//DTD SVG 20010904//EN"
 "http://www.w3.org/TR/2001/REC-SVG-20010904/DTD/svg10.dtd">
<svg version="1.0" xmlns="http://www.w3.org/2000/svg"
 width="1080.000000pt" height="1080.000000pt" viewBox="0 0 1080.000000 1080.000000"
 preserveAspectRatio="xMidYMid meet">

<g transform="translate(0.000000,1080.000000) scale(0.100000,-0.100000)"
fill="#000000" stroke="none">
<path d="M2710 9943 c-129 -163 -236 -299 -238 -303 -3 -8 426 105 436 114 2
3 9 72 13 153 5 82 14 188 20 236 6 49 9 90 7 92 -2 2 -109 -129 -238 -292z"/>
<path d="M10630 5358 c-573 -540 -1362 -1090 -2092 -1459 l-197 -99 -163 0
c-206 0 -482 15 -758 41 -118 11 -262 24 -321 29 -250 22 -851 130 -1173 211
-98 25 -121 28 -132 17 -7 -7 -168 -193 -358 -413 l-345 -400 -1 -1561 0
-1561 98 -6 c139 -10 425 -8 662 3 673 32 1298 138 1784 301 242 82 180 23
653 630 413 530 1039 1332 1941 2488 255 326 467 604 472 616 14 36 39 316 46
510 6 168 -8 562 -24 681 l-7 52 -85 -80z"/>
</g>
</svg>
