<svg width="21" height="23" viewBox="0 0 21 23" fill="none" xmlns="http://www.w3.org/2000/svg">
<path d="M1.73569 16.851L2.56064 17.3273L11.7509 1.40969L10.926 0.933394L1.73569 16.851Z" fill="#E535AB"/>
<path d="M19.9274 15.5793H1.54678V16.5319H19.9274V15.5793Z" fill="#E535AB"/>
<path d="M1.91049 16.1145L11.1042 21.4227L11.5805 20.5977L2.38679 15.2896L1.91049 16.1145Z" fill="#E535AB"/>
<path d="M9.89706 2.28004L19.0908 7.5882L19.5671 6.76324L10.3734 1.45509L9.89706 2.28004Z" fill="#E535AB"/>
<path d="M1.91301 6.75964L2.38931 7.58459L11.583 2.27644L11.1067 1.45149L1.91301 6.75964Z" fill="#E535AB"/>
<path d="M9.73101 1.40988L18.9213 17.3275L19.7462 16.8512L10.556 0.933578L9.73101 1.40988Z" fill="#E535AB"/>
<path d="M3.22817 6.12793H2.27557V16.7442H3.22817V6.12793Z" fill="#E535AB"/>
<path d="M19.2043 6.12793H18.2517V16.7442H19.2043V6.12793Z" fill="#E535AB"/>
<path d="M10.526 20.2988L10.942 21.0194L18.9381 16.4027L18.5221 15.6822L10.526 20.2988Z" fill="#E535AB"/>
<path d="M20.4668 17.0541C19.9159 18.0125 18.6878 18.3396 17.7295 17.7887C16.7712 17.2378 16.4441 16.0097 16.995 15.0514C17.5459 14.0931 18.7739 13.766 19.7322 14.3169C20.6963 14.8735 21.0234 16.0958 20.4668 17.0541Z" fill="#E535AB"/>
<path d="M4.47917 7.82081C3.92827 8.77915 2.70022 9.10624 1.74188 8.55534C0.783546 8.00444 0.456449 6.77639 1.00735 5.81806C1.55825 4.85972 2.7863 4.53262 3.74464 5.08352C4.70297 5.64016 5.03007 6.86247 4.47917 7.82081Z" fill="#E535AB"/>
<path d="M1.01309 17.0541C0.462186 16.0958 0.789283 14.8735 1.74762 14.3169C2.70596 13.766 3.92827 14.0931 4.48491 15.0514C5.03581 16.0097 4.70871 17.232 3.75037 17.7887C2.7863 18.3396 1.56399 18.0125 1.01309 17.0541Z" fill="#E535AB"/>
<path d="M17.0007 7.82081C16.4498 6.86247 16.7769 5.64016 17.7352 5.08352C18.6936 4.53262 19.9159 4.85972 20.4725 5.81806C21.0234 6.77639 20.6963 7.9987 19.738 8.55534C18.7796 9.10624 17.5516 8.77915 17.0007 7.82081Z" fill="#E535AB"/>
<path d="M10.7399 22.6722C9.6324 22.6722 8.73718 21.777 8.73718 20.6694C8.73718 19.5619 9.6324 18.6667 10.7399 18.6667C11.8475 18.6667 12.7427 19.5619 12.7427 20.6694C12.7427 21.7712 11.8475 22.6722 10.7399 22.6722Z" fill="#E535AB"/>
<path d="M10.7399 4.20552C9.6324 4.20552 8.73718 3.31031 8.73718 2.20277C8.73718 1.09523 9.6324 0.200012 10.7399 0.200012C11.8475 0.200012 12.7427 1.09523 12.7427 2.20277C12.7427 3.31031 11.8475 4.20552 10.7399 4.20552Z" fill="#E535AB"/>
</svg>
