<svg width="20" height="23" viewBox="0 0 20 23" fill="none" xmlns="http://www.w3.org/2000/svg">
<path d="M0.995728 16.851L1.82068 17.3273L11.011 1.40976L10.186 0.933455L0.995728 16.851Z" fill="#317DED"/>
<path d="M19.1875 15.5793H0.806885V16.5319H19.1875V15.5793Z" fill="#317DED"/>
<path d="M1.17053 16.1145L10.3643 21.4227L10.8406 20.5977L1.64683 15.2896L1.17053 16.1145Z" fill="#317DED"/>
<path d="M9.1571 2.28004L18.3508 7.5882L18.8271 6.76325L9.6334 1.45509L9.1571 2.28004Z" fill="#317DED"/>
<path d="M1.17311 6.75958L1.64941 7.58453L10.8431 2.27638L10.3668 1.45142L1.17311 6.75958Z" fill="#317DED"/>
<path d="M8.99111 1.40988L18.1814 17.3275L19.0063 16.8512L9.81606 0.933578L8.99111 1.40988Z" fill="#317DED"/>
<path d="M2.48824 6.12799H1.53564V16.7443H2.48824V6.12799Z" fill="#317DED"/>
<path d="M18.4643 6.12799H17.5117V16.7443H18.4643V6.12799Z" fill="#317DED"/>
<path d="M9.7861 20.2989L10.2021 21.0195L18.1982 16.4028L17.7822 15.6822L9.7861 20.2989Z" fill="#317DED"/>
<path d="M19.7268 17.0541C19.1759 18.0124 17.9478 18.3395 16.9895 17.7886C16.0312 17.2377 15.7041 16.0097 16.255 15.0513C16.8059 14.093 18.0339 13.7659 18.9923 14.3168C19.9563 14.8734 20.2834 16.0957 19.7268 17.0541Z" fill="#317DED"/>
<path d="M3.73924 7.82081C3.18834 8.77915 1.96029 9.10624 1.00195 8.55534C0.0436168 8.00444 -0.28348 6.77639 0.26742 5.81806C0.818321 4.85972 2.04637 4.53262 3.00471 5.08352C3.96305 5.64016 4.29014 6.86247 3.73924 7.82081Z" fill="#317DED"/>
<path d="M0.273158 17.0541C-0.277743 16.0957 0.049354 14.8734 1.00769 14.3168C1.96603 13.7659 3.18834 14.093 3.74498 15.0513C4.29588 16.0097 3.96878 17.232 3.01045 17.7886C2.04637 18.3395 0.824058 18.0124 0.273158 17.0541Z" fill="#317DED"/>
<path d="M16.2607 7.82081C15.7098 6.86247 16.0369 5.64016 16.9952 5.08352C17.9536 4.53262 19.1759 4.85972 19.7325 5.81806C20.2834 6.77639 19.9563 7.9987 18.998 8.55534C18.0397 9.10624 16.8116 8.77915 16.2607 7.82081Z" fill="#317DED"/>
<path d="M9.99995 22.6722C8.89241 22.6722 7.99719 21.777 7.99719 20.6694C7.99719 19.5619 8.89241 18.6667 9.99995 18.6667C11.1075 18.6667 12.0027 19.5619 12.0027 20.6694C12.0027 21.7712 11.1075 22.6722 9.99995 22.6722Z" fill="#317DED"/>
<path d="M9.99995 4.20552C8.89241 4.20552 7.99719 3.31031 7.99719 2.20277C7.99719 1.09523 8.89241 0.200012 9.99995 0.200012C11.1075 0.200012 12.0027 1.09523 12.0027 2.20277C12.0027 3.31031 11.1075 4.20552 9.99995 4.20552Z" fill="#317DED"/>
</svg>
