<svg width="20" height="20" viewBox="0 0 20 20" fill="none" xmlns="http://www.w3.org/2000/svg">
<g clip-path="url(#clip0_6_224)">
<path d="M12.461 13.3973H0.960384C0.432173 13.3973 0 12.9652 0 12.4369C0 11.9087 0.432173 11.4766 0.960384 11.4766H12.461C12.9892 11.4766 13.4214 11.9087 13.4214 12.4369C13.4214 12.9652 12.9892 13.3973 12.461 13.3973Z" fill="#99CFAC"/>
<path d="M10.012 19.2797C9.07562 19.2797 8.13925 19.1356 7.25089 18.8715C6.74669 18.7034 6.45858 18.1752 6.62664 17.671C6.79471 17.1668 7.32292 16.8787 7.82712 17.0468C8.5234 17.2629 9.2677 17.3829 10.012 17.3829C13.2773 17.3829 16.1104 15.2941 17.0468 12.1728C17.1909 11.6686 17.7431 11.3805 18.2473 11.5246C18.7515 11.6686 19.0396 12.2208 18.8955 12.7251C17.6711 16.6386 14.1176 19.2797 10.012 19.2797Z" fill="#49B881"/>
<path d="M19.0396 8.52337H7.539C7.01079 8.52337 6.57861 8.09119 6.57861 7.56298C6.57861 7.03477 7.01079 6.6026 7.539 6.6026H19.0396C19.5678 6.6026 20 7.03477 20 7.56298C20 8.09119 19.5678 8.52337 19.0396 8.52337Z" fill="#99CFAC"/>
<path d="M2.04081 8.52339C1.94477 8.52339 1.84873 8.49938 1.75269 8.47537C1.24849 8.33132 0.960378 7.7791 1.10444 7.27489C2.32892 3.36133 5.88234 0.720276 10.012 0.720276C10.9484 0.720276 11.8847 0.864333 12.7731 1.12844C13.2773 1.29651 13.5654 1.82472 13.3973 2.32892C13.2293 2.83312 12.7011 3.12124 12.1969 2.95317C11.5006 2.73708 10.7563 2.61703 10.012 2.61703C6.74669 2.61703 3.91356 4.70587 2.97718 7.82712C2.83313 8.25929 2.44897 8.52339 2.04081 8.52339Z" fill="#49B881"/>
<path d="M15.7023 4.87395C16.2327 4.87395 16.6627 4.44398 16.6627 3.91357C16.6627 3.38316 16.2327 2.95319 15.7023 2.95319C15.1719 2.95319 14.7419 3.38316 14.7419 3.91357C14.7419 4.44398 15.1719 4.87395 15.7023 4.87395Z" fill="#99CFAC"/>
<path d="M4.29773 17.0709C4.82813 17.0709 5.25811 16.6409 5.25811 16.1105C5.25811 15.5801 4.82813 15.1501 4.29773 15.1501C3.76732 15.1501 3.33734 15.5801 3.33734 16.1105C3.33734 16.6409 3.76732 17.0709 4.29773 17.0709Z" fill="#99CFAC"/>
</g>
<defs>
<clipPath id="clip0_6_224">
<rect width="20" height="20" fill="white"/>
</clipPath>
</defs>
</svg>
