<svg width="20" height="20" viewBox="0 0 20 20" fill="none" xmlns="http://www.w3.org/2000/svg">
<g clip-path="url(#clip0_6_222)">
<path d="M19.7522 8.25561H13.885L18.0078 4.1328C17.6906 3.65718 17.3734 3.33999 17.0562 2.86405C16.5999 2.53422 16.1752 2.16262 15.7878 1.75405L11.6656 5.87718V0.168739C11.1478 0.0376748 10.6135 -0.0157208 10.08 0.0103014C9.54613 -0.024116 9.01024 0.0294093 8.49374 0.168739V6.03593L4.21249 1.75468C3.72022 2.03684 3.28894 2.41405 2.94374 2.86436C2.62655 3.33999 2.15093 3.65718 1.83374 4.13311L5.95624 8.25561H0.248113L0.0896757 9.84124C0.0553271 10.3749 0.108852 10.9106 0.248113 11.4269H6.11561L1.83436 15.7081C2.46082 16.6515 3.26946 17.4601 4.2128 18.0866L8.33561 13.9637V19.8312C8.85339 19.9623 9.38777 20.0157 9.92124 19.9897C10.4549 20.024 10.9906 19.9705 11.5069 19.8312V13.9644L15.6294 18.0875C16.1216 17.8052 16.5527 17.4279 16.8978 16.9775C17.3064 16.59 17.678 16.1654 18.0078 15.7091L13.885 11.5856H19.7522C19.8833 11.0679 19.9368 10.5335 19.9109 9.99999C19.9445 9.4139 19.8908 8.82606 19.7522 8.25561ZM12.4578 9.84124C12.442 10.5393 12.3354 11.2323 12.1406 11.9028C11.4854 12.1597 10.7812 12.2681 10.0791 12.22C9.38101 12.2042 8.68799 12.0976 8.01749 11.9028C7.76056 11.2475 7.65222 10.5434 7.7003 9.84124C7.71606 9.14319 7.82268 8.45017 8.01749 7.77968C8.67275 7.52274 9.37686 7.41441 10.0791 7.46249C10.7771 7.47825 11.4701 7.58487 12.1406 7.77968C12.3235 8.45275 12.4299 9.14431 12.4578 9.84124Z" fill="#FF4A00"/>
</g>
<defs>
<clipPath id="clip0_6_222">
<rect width="20" height="20" fill="white"/>
</clipPath>
</defs>
</svg>
